{"asset":{"version":"2.0","generator":"Blockbench 5.0.7 glTF exporter"},"scenes":[{"nodes":[0,1,2,3,4,5,6,7],"name":"blockbench_export"}],"scene":0,"nodes":[{"name":"cylinder","mesh":0},{"translation":[-0.18124999999999997,0,-0.175],"name":"cylinder","mesh":1},{"translation":[0.18124999999999997,0,-0.175],"name":"cylinder","mesh":2},{"translation":[-0.1875,0.3125,-0.1875],"name":"cone","mesh":3},{"translation":[0.1875,0.3125,-0.1875],"name":"cone","mesh":4},{"translation":[0,0,0.225],"name":"beveled_cuboid","mesh":5},{"rotation":[0,0,0.7071067811865475,0.7071067811865476],"translation":[0.0625,0.5,0.2562500000000001],"name":"cylinder","mesh":6},{"translation":[0,0.46250000000000013,0.5531250000000001],"name":"cylinder","mesh":7}],"bufferViews":[{"buffer":0,"byteOffset":0,"byteLength":1344,"target":34962,"byteStride":12},{"buffer":0,"byteOffset":1344,"byteLength":1344,"target":34962,"byteStride":12},{"buffer":0,"byteOffset":2688,"byteLength":896,"target":34962,"byteStride":8},{"buffer":0,"byteOffset":3584,"byteLength":288,"target":34963},{"buffer":0,"byteOffset":3872,"byteLength":960,"target":34962,"byteStride":12},{"buffer":0,"byteOffset":4832,"byteLength":960,"target":34962,"byteStride":12},{"buffer":0,"byteOffset":5792,"byteLength":640,"target":34962,"byteStride":8},{"buffer":0,"byteOffset":6432,"byteLength":192,"target":34963},{"buffer":0,"byteOffset":6624,"byteLength":960,"target":34962,"byteStride":12},{"buffer":0,"byteOffset":7584,"byteLength":960,"target":34962,"byteStride":12},{"buffer":0,"byteOffset":8544,"byteLength":640,"target":34962,"byteStride":8},{"buffer":0,"byteOffset":9184,"byteLength":192,"target":34963},{"buffer":0,"byteOffset":9376,"byteLength":960,"target":34962,"byteStride":12},{"buffer":0,"byteOffset":10336,"byteLength":960,"target":34962,"byteStride":12},{"buffer":0,"byteOffset":11296,"byteLength":640,"target":34962,"byteStride":8},{"buffer":0,"byteOffset":11936,"byteLength":192,"target":34963},{"buffer":0,"byteOffset":12128,"byteLength":960,"target":34962,"byteStride":12},{"buffer":0,"byteOffset":13088,"byteLength":960,"target":34962,"byteStride":12},{"buffer":0,"byteOffset":14048,"byteLength":640,"target":34962,"byteStride":8},{"buffer":0,"byteOffset":14688,"byteLength":192,"target":34963},{"buffer":0,"byteOffset":14880,"byteLength":1152,"target":34962,"byteStride":12},{"buffer":0,"byteOffset":16032,"byteLength":1152,"target":34962,"byteStride":12},{"buffer":0,"byteOffset":17184,"byteLength":768,"target":34962,"byteStride":8},{"buffer":0,"byteOffset":17952,"byteLength":264,"target":34963},{"buffer":0,"byteOffset":18216,"byteLength":960,"target":34962,"byteStride":12},{"buffer":0,"byteOffset":19176,"byteLength":960,"target":34962,"byteStride":12},{"buffer":0,"byteOffset":20136,"byteLength":640,"target":34962,"byteStride":8},{"buffer":0,"byteOffset":20776,"byteLength":192,"target":34963},{"buffer":0,"byteOffset":20968,"byteLength":960,"target":34962,"byteStride":12},{"buffer":0,"byteOffset":21928,"byteLength":960,"target":34962,"byteStride":12},{"buffer":0,"byteOffset":22888,"byteLength":640,"target":34962,"byteStride":8},{"buffer":0,"byteOffset":23528,"byteLength":192,"target":34963}],"buffers":[{"byteLength":23720,"uri":"data:application/octet-stream;base64,"}],"accessors":[{"bufferView":0,"componentType":5126,"count":112,"max":[0.5,0.0625,0.5],"min":[-0.5,0,-0.5],"type":"VEC3"},{"bufferView":1,"componentType":5126,"count":112,"max":[1,1,1],"min":[-1,-1,-1],"type":"VEC3"},{"bufferView":2,"componentType":5126,"count":112,"max":[0.2874999940395355,0.2875000238418579],"min":[0,0],"type":"VEC2"},{"bufferView":3,"componentType":5123,"count":144,"max":[111],"min":[0],"type":"SCALAR"},{"bufferView":4,"componentType":5126,"count":80,"max":[0.15625,0.0625,0.15625],"min":[-0.15625,0,-0.15625],"type":"VEC3"},{"bufferView":5,"componentType":5126,"count":80,"max":[1,1,1],"min":[-1,-1,-1],"type":"VEC3"},{"bufferView":6,"componentType":5126,"count":80,"max":[0.08456148207187653,0.08456146717071533],"min":[0,0],"type":"VEC2"},{"bufferView":7,"componentType":5123,"count":96,"max":[79],"min":[0],"type":"SCALAR"},{"bufferView":8,"componentType":5126,"count":80,"max":[0.15625,0.0625,0.15625],"min":[-0.15625,0,-0.15625],"type":"VEC3"},{"bufferView":9,"componentType":5126,"count":80,"max":[1,1,1],"min":[-1,-1,-1],"type":"VEC3"},{"bufferView":10,"componentType":5126,"count":80,"max":[0.08456148207187653,0.08456146717071533],"min":[0,0],"type":"VEC2"},{"bufferView":11,"componentType":5123,"count":96,"max":[79],"min":[0],"type":"SCALAR"},{"bufferView":12,"componentType":5126,"count":80,"max":[0.15625,0.11874999850988388,0.15625],"min":[-0.15625,-0.012500000186264515,-0.15625],"type":"VEC3"},{"bufferView":13,"componentType":5126,"count":80,"max":[0.6050832867622375,0.9073106050491333,0.9037378430366516],"min":[-0.6050832867622375,-0.977992832660675,-0.4204609990119934],"type":"VEC3"},{"bufferView":14,"componentType":5126,"count":80,"max":[0.11328125,0.12203747034072876],"min":[0,0],"type":"VEC2"},{"bufferView":15,"componentType":5123,"count":96,"max":[79],"min":[0],"type":"SCALAR"},{"bufferView":16,"componentType":5126,"count":80,"max":[0.15625,0.11874999850988388,0.15625],"min":[-0.15625,-0.012500000186264515,-0.15625],"type":"VEC3"},{"bufferView":17,"componentType":5126,"count":80,"max":[0.6050832867622375,0.9073106050491333,0.9037378430366516],"min":[-0.6050832867622375,-0.977992832660675,-0.4204609990119934],"type":"VEC3"},{"bufferView":18,"componentType":5126,"count":80,"max":[0.11328125,0.12203747034072876],"min":[0,0],"type":"VEC2"},{"bufferView":19,"componentType":5123,"count":96,"max":[79],"min":[0],"type":"SCALAR"},{"bufferView":20,"componentType":5126,"count":96,"max":[0.375,0.5,0.3125],"min":[-0.375,0,-0.3125],"type":"VEC3"},{"bufferView":21,"componentType":5126,"count":96,"max":[1,1,1],"min":[-1,-1,-1],"type":"VEC3"},{"bufferView":22,"componentType":5126,"count":96,"max":[0.5,0.5],"min":[0,0],"type":"VEC2"},{"bufferView":23,"componentType":5123,"count":132,"max":[95],"min":[0],"type":"SCALAR"},{"bufferView":24,"componentType":5126,"count":80,"max":[0.28125,0.4625000059604645,0.3125],"min":[-0.28125,-0.3375000059604645,-0.3125],"type":"VEC3"},{"bufferView":25,"componentType":5126,"count":80,"max":[1,1,1],"min":[-1,-1,-1],"type":"VEC3"},{"bufferView":26,"componentType":5126,"count":80,"max":[0.08456148207187653,0.08456146717071533],"min":[0,0],"type":"VEC2"},{"bufferView":27,"componentType":5123,"count":96,"max":[79],"min":[0],"type":"SCALAR"},{"bufferView":28,"componentType":5126,"count":80,"max":[0.5625,0.5874999761581421,0.3125],"min":[-0.5625,-0.4625000059604645,-0.3125],"type":"VEC3"},{"bufferView":29,"componentType":5126,"count":80,"max":[1,1,1],"min":[-1,-1,-1],"type":"VEC3"},{"bufferView":30,"componentType":5126,"count":80,"max":[0.08456148207187653,0.08456146717071533],"min":[0,0],"type":"VEC2"},{"bufferView":31,"componentType":5123,"count":96,"max":[79],"min":[0],"type":"SCALAR"}],"materials":[{"pbrMetallicRoughness":{"metallicFactor":0,"roughnessFactor":1},"alphaMode":"MASK","alphaCutoff":0.05,"doubleSided":true},{"pbrMetallicRoughness":{"metallicFactor":0,"roughnessFactor":1},"alphaMode":"MASK","alphaCutoff":0.05,"doubleSided":true},{"pbrMetallicRoughness":{"metallicFactor":0,"roughnessFactor":1},"alphaMode":"MASK","alphaCutoff":0.05,"doubleSided":true},{"pbrMetallicRoughness":{"metallicFactor":0,"roughnessFactor":1},"alphaMode":"MASK","alphaCutoff":0.05,"doubleSided":true},{"pbrMetallicRoughness":{"metallicFactor":0,"roughnessFactor":1},"alphaMode":"MASK","alphaCutoff":0.05,"doubleSided":true}],"meshes":[{"primitives":[{"mode":4,"attributes":{"POSITION":0,"NORMAL":1,"TEXCOORD_0":2},"indices":3,"material":0}]},{"primitives":[{"mode":4,"attributes":{"POSITION":4,"NORMAL":5,"TEXCOORD_0":6},"indices":7,"material":1}]},{"primitives":[{"mode":4,"attributes":{"POSITION":8,"NORMAL":9,"TEXCOORD_0":10},"indices":11,"material":1}]},{"primitives":[{"mode":4,"attributes":{"POSITION":12,"NORMAL":13,"TEXCOORD_0":14},"indices":15,"material":2}]},{"primitives":[{"mode":4,"attributes":{"POSITION":16,"NORMAL":17,"TEXCOORD_0":18},"indices":19,"material":2}]},{"primitives":[{"mode":4,"attributes":{"POSITION":20,"NORMAL":21,"TEXCOORD_0":22},"indices":23,"material":3}]},{"primitives":[{"mode":4,"attributes":{"POSITION":24,"NORMAL":25,"TEXCOORD_0":26},"indices":27,"material":4}]},{"primitives":[{"mode":4,"attributes":{"POSITION":28,"NORMAL":29,"TEXCOORD_0":30},"indices":31,"material":4}]}]}