{"asset":{"version":"2.0","generator":"Blockbench 5.0.7 glTF exporter"},"scenes":[{"nodes":[0,1,2,3,4,5,6,7],"name":"blockbench_export"}],"scene":0,"nodes":[{"translation":[0,0.625,0],"name":"sphere","mesh":0},{"translation":[6.5295674849936014e-18,1.3125,3.383105761346228e-18],"name":"sphere","mesh":1},{"translation":[-0.25,0,-0.1875],"name":"mesh","mesh":2},{"translation":[0.25,0,-0.1875],"name":"mesh","mesh":3},{"translation":[-0.23124999999999998,0.015625,-0.0625],"name":"cylinder","mesh":4},{"translation":[0.23124999999999998,0.015625,-0.0625],"name":"cylinder","mesh":5},{"rotation":[0,0,0.3420201433256687,0.9396926207859084],"translation":[-0.44374999999999976,0.7593749999999999,-0.012499999999999956],"name":"mesh","mesh":6},{"rotation":[0,0,-0.3420201433256687,0.9396926207859084],"translation":[0.44374999999999976,0.7593749999999999,-0.012499999999999956],"name":"mesh","mesh":7}],"bufferViews":[{"buffer":0,"byteOffset":0,"byteLength":1728,"target":34962,"byteStride":12},{"buffer":0,"byteOffset":1728,"byteLength":1728,"target":34962,"byteStride":12},{"buffer":0,"byteOffset":3456,"byteLength":1152,"target":34962,"byteStride":8},{"buffer":0,"byteOffset":4608,"byteLength":384,"target":34963},{"buffer":0,"byteOffset":4992,"byteLength":1944,"target":34962,"byteStride":12},{"buffer":0,"byteOffset":6936,"byteLength":1944,"target":34962,"byteStride":12},{"buffer":0,"byteOffset":8880,"byteLength":1296,"target":34962,"byteStride":8},{"buffer":0,"byteOffset":10176,"byteLength":432,"target":34963},{"buffer":0,"byteOffset":10608,"byteLength":288,"target":34962,"byteStride":12},{"buffer":0,"byteOffset":10896,"byteLength":288,"target":34962,"byteStride":12},{"buffer":0,"byteOffset":11184,"byteLength":192,"target":34962,"byteStride":8},{"buffer":0,"byteOffset":11376,"byteLength":72,"target":34963},{"buffer":0,"byteOffset":11448,"byteLength":288,"target":34962,"byteStride":12},{"buffer":0,"byteOffset":11736,"byteLength":288,"target":34962,"byteStride":12},{"buffer":0,"byteOffset":12024,"byteLength":192,"target":34962,"byteStride":8},{"buffer":0,"byteOffset":12216,"byteLength":72,"target":34963},{"buffer":0,"byteOffset":12288,"byteLength":600,"target":34962,"byteStride":12},{"buffer":0,"byteOffset":12888,"byteLength":600,"target":34962,"byteStride":12},{"buffer":0,"byteOffset":13488,"byteLength":400,"target":34962,"byteStride":8},{"buffer":0,"byteOffset":13888,"byteLength":120,"target":34963},{"buffer":0,"byteOffset":14008,"byteLength":600,"target":34962,"byteStride":12},{"buffer":0,"byteOffset":14608,"byteLength":600,"target":34962,"byteStride":12},{"buffer":0,"byteOffset":15208,"byteLength":400,"target":34962,"byteStride":8},{"buffer":0,"byteOffset":15608,"byteLength":120,"target":34963},{"buffer":0,"byteOffset":15728,"byteLength":288,"target":34962,"byteStride":12},{"buffer":0,"byteOffset":16016,"byteLength":288,"target":34962,"byteStride":12},{"buffer":0,"byteOffset":16304,"byteLength":192,"target":34962,"byteStride":8},{"buffer":0,"byteOffset":16496,"byteLength":72,"target":34963},{"buffer":0,"byteOffset":16568,"byteLength":288,"target":34962,"byteStride":12},{"buffer":0,"byteOffset":16856,"byteLength":288,"target":34962,"byteStride":12},{"buffer":0,"byteOffset":17144,"byteLength":192,"target":34962,"byteStride":8},{"buffer":0,"byteOffset":17336,"byteLength":72,"target":34963}],"buffers":[{"byteLength":17408,"uri":"data:application/octet-stream;base64,"}],"accessors":[{"bufferView":0,"componentType":5126,"count":144,"max":[0.40625,0.59375,0.234375],"min":[-0.40625,-0.59375,-0.34809648990631104],"type":"VEC3"},{"bufferView":1,"componentType":5126,"count":144,"max":[0.9997075796127319,0.8938286304473877,0.9999070167541504],"min":[-0.9997075796127319,-0.9682915210723877,-0.9913513660430908],"type":"VEC3"},{"bufferView":2,"componentType":5126,"count":144,"max":[0.11649999767541885,0.10763126611709595],"min":[0,0],"type":"VEC2"},{"bufferView":3,"componentType":5123,"count":192,"max":[143],"min":[0],"type":"SCALAR"},{"bufferView":4,"componentType":5126,"count":162,"max":[0.24687500298023224,0.24687500298023224,0.24687500298023224],"min":[-0.24687500298023224,-0.24687500298023224,-0.43437498807907104],"type":"VEC3"},{"bufferView":5,"componentType":5126,"count":162,"max":[0.9238795042037964,0.9238795042037964,0.9238795042037964],"min":[-0.9238795042037964,-0.9238795042037964,-0.7936250567436218],"type":"VEC3"},{"bufferView":6,"componentType":5126,"count":162,"max":[0.06471875309944153,0.05979377031326294],"min":[0,0],"type":"VEC2"},{"bufferView":7,"componentType":5123,"count":216,"max":[161],"min":[0],"type":"SCALAR"},{"bufferView":8,"componentType":5126,"count":24,"max":[0.09375,0.0625,0.15000000596046448],"min":[-0.09375,0,-0.15000000596046448],"type":"VEC3"},{"bufferView":9,"componentType":5126,"count":24,"max":[1,1,1],"min":[-1,-1,-1],"type":"VEC3"},{"bufferView":10,"componentType":5126,"count":24,"max":[0.15625,0.15625],"min":[0,0],"type":"VEC2"},{"bufferView":11,"componentType":5123,"count":36,"max":[23],"min":[0],"type":"SCALAR"},{"bufferView":12,"componentType":5126,"count":24,"max":[0.09375,0.0625,0.15000000596046448],"min":[-0.09375,0,-0.15000000596046448],"type":"VEC3"},{"bufferView":13,"componentType":5126,"count":24,"max":[1,1,1],"min":[-1,-1,-1],"type":"VEC3"},{"bufferView":14,"componentType":5126,"count":24,"max":[0.15625,0.15625],"min":[0,0],"type":"VEC2"},{"bufferView":15,"componentType":5123,"count":36,"max":[23],"min":[0],"type":"SCALAR"},{"bufferView":16,"componentType":5126,"count":50,"max":[0.09458473324775696,0.125,0.09375],"min":[-0.09458473324775696,0,-0.11588137596845627],"type":"VEC3"},{"bufferView":17,"componentType":5126,"count":50,"max":[0.9632500410079956,1,1],"min":[-0.9632500410079956,-1,-0.7632318139076233],"type":"VEC3"},{"bufferView":18,"componentType":5126,"count":50,"max":[0.06811250001192093,0.06811249256134033],"min":[0,0],"type":"VEC2"},{"bufferView":19,"componentType":5123,"count":60,"max":[49],"min":[0],"type":"SCALAR"},{"bufferView":20,"componentType":5126,"count":50,"max":[0.09458473324775696,0.125,0.09375],"min":[-0.09458473324775696,0,-0.11588137596845627],"type":"VEC3"},{"bufferView":21,"componentType":5126,"count":50,"max":[0.9632500410079956,1,1],"min":[-0.9632500410079956,-1,-0.7632318139076233],"type":"VEC3"},{"bufferView":22,"componentType":5126,"count":50,"max":[0.06811250001192093,0.06811249256134033],"min":[0,0],"type":"VEC2"},{"bufferView":23,"componentType":5123,"count":60,"max":[49],"min":[0],"type":"SCALAR"},{"bufferView":24,"componentType":5126,"count":24,"max":[0.453125,0.09375,0.125],"min":[-0.36694636940956116,-0.08144514262676239,-0.125],"type":"VEC3"},{"bufferView":25,"componentType":5126,"count":24,"max":[1,0.9832565188407898,0.849255383014679],"min":[-0.6629948616027832,-0.9906893968582153,-0.8511210083961487],"type":"VEC3"},{"bufferView":26,"componentType":5126,"count":24,"max":[0.15625,0.15625],"min":[0,0],"type":"VEC2"},{"bufferView":27,"componentType":5123,"count":36,"max":[23],"min":[0],"type":"SCALAR"},{"bufferView":28,"componentType":5126,"count":24,"max":[0.36694636940956116,0.09375,0.125],"min":[-0.453125,-0.08144514262676239,-0.125],"type":"VEC3"},{"bufferView":29,"componentType":5126,"count":24,"max":[0.6629948616027832,0.9832565188407898,0.849255383014679],"min":[-1,-0.9906893968582153,-0.8511210083961487],"type":"VEC3"},{"bufferView":30,"componentType":5126,"count":24,"max":[0.15625,0.15625],"min":[0,0],"type":"VEC2"},{"bufferView":31,"componentType":5123,"count":36,"max":[23],"min":[0],"type":"SCALAR"}],"materials":[{"pbrMetallicRoughness":{"metallicFactor":0,"roughnessFactor":1},"alphaMode":"MASK","alphaCutoff":0.05,"doubleSided":true},{"pbrMetallicRoughness":{"metallicFactor":0,"roughnessFactor":1},"alphaMode":"MASK","alphaCutoff":0.05,"doubleSided":true},{"pbrMetallicRoughness":{"metallicFactor":0,"roughnessFactor":1},"alphaMode":"MASK","alphaCutoff":0.05,"doubleSided":true},{"pbrMetallicRoughness":{"metallicFactor":0,"roughnessFactor":1},"alphaMode":"MASK","alphaCutoff":0.05,"doubleSided":true}],"meshes":[{"primitives":[{"mode":4,"attributes":{"POSITION":0,"NORMAL":1,"TEXCOORD_0":2},"indices":3,"material":0}]},{"primitives":[{"mode":4,"attributes":{"POSITION":4,"NORMAL":5,"TEXCOORD_0":6},"indices":7,"material":1}]},{"primitives":[{"mode":4,"attributes":{"POSITION":8,"NORMAL":9,"TEXCOORD_0":10},"indices":11,"material":2}]},{"primitives":[{"mode":4,"attributes":{"POSITION":12,"NORMAL":13,"TEXCOORD_0":14},"indices":15,"material":2}]},{"primitives":[{"mode":4,"attributes":{"POSITION":16,"NORMAL":17,"TEXCOORD_0":18},"indices":19,"material":3}]},{"primitives":[{"mode":4,"attributes":{"POSITION":20,"NORMAL":21,"TEXCOORD_0":22},"indices":23,"material":3}]},{"primitives":[{"mode":4,"attributes":{"POSITION":24,"NORMAL":25,"TEXCOORD_0":26},"indices":27,"material":0}]},{"primitives":[{"mode":4,"attributes":{"POSITION":28,"NORMAL":29,"TEXCOORD_0":30},"indices":31,"material":0}]}]}